<svg width="17" height="16" viewBox="0 0 17 16" fill="none" xmlns="http://www.w3.org/2000/svg">
<path d="M13 4V10.5C13 10.6326 12.9473 10.7598 12.8536 10.8536C12.7598 10.9473 12.6326 11 12.5 11C12.3674 11 12.2402 10.9473 12.1465 10.8536C12.0527 10.7598 12 10.6326 12 10.5V5.20687L4.85375 12.3538C4.75993 12.4476 4.63269 12.5003 4.5 12.5003C4.36732 12.5003 4.24007 12.4476 4.14625 12.3538C4.05243 12.2599 3.99973 12.1327 3.99973 12C3.99973 11.8673 4.05243 11.7401 4.14625 11.6462L11.2931 4.5H6C5.8674 4.5 5.74022 4.44732 5.64645 4.35355C5.55268 4.25979 5.5 4.13261 5.5 4C5.5 3.86739 5.55268 3.74021 5.64645 3.64645C5.74022 3.55268 5.8674 3.5 6 3.5H12.5C12.6326 3.5 12.7598 3.55268 12.8536 3.64645C12.9473 3.74021 13 3.86739 13 4Z" fill="#111112"/>
</svg>
