<svg width="49" height="48" viewBox="0 0 49 48" fill="none" xmlns="http://www.w3.org/2000/svg">
<path d="M39.3334 4.5H13.8334C12.2421 4.5 10.716 5.13214 9.59073 6.25736C8.46551 7.38258 7.83337 8.9087 7.83337 10.5V42C7.83337 42.3978 7.99141 42.7794 8.27271 43.0607C8.55402 43.342 8.93555 43.5 9.33337 43.5H36.3334C36.7312 43.5 37.1127 43.342 37.394 43.0607C37.6753 42.7794 37.8334 42.3978 37.8334 42C37.8334 41.6022 37.6753 41.2206 37.394 40.9393C37.1127 40.658 36.7312 40.5 36.3334 40.5H10.8334C10.8334 39.7043 11.1494 38.9413 11.7121 38.3787C12.2747 37.8161 13.0377 37.5 13.8334 37.5H39.3334C39.7312 37.5 40.1127 37.342 40.394 37.0607C40.6753 36.7794 40.8334 36.3978 40.8334 36V6C40.8334 5.60218 40.6753 5.22064 40.394 4.93934C40.1127 4.65804 39.7312 4.5 39.3334 4.5ZM37.8334 34.5H13.8334C12.7799 34.4986 11.7448 34.7761 10.8334 35.3044V10.5C10.8334 9.70435 11.1494 8.94129 11.7121 8.37868C12.2747 7.81607 13.0377 7.5 13.8334 7.5H37.8334V34.5Z" fill="black"/>
</svg>
