<svg width="48" height="48" viewBox="0 0 48 48" fill="none" xmlns="http://www.w3.org/2000/svg">
<path d="M24 25.5C24 25.8978 23.842 26.2794 23.5607 26.5607C23.2794 26.842 22.8978 27 22.5 27H13.5C13.1022 27 12.7206 26.842 12.4393 26.5607C12.158 26.2794 12 25.8978 12 25.5C12 25.1022 12.158 24.7206 12.4393 24.4393C12.7206 24.158 13.1022 24 13.5 24H22.5C22.8978 24 23.2794 24.158 23.5607 24.4393C23.842 24.7206 24 25.1022 24 25.5ZM22.5 18H13.5C13.1022 18 12.7206 18.158 12.4393 18.4393C12.158 18.7206 12 19.1022 12 19.5C12 19.8978 12.158 20.2794 12.4393 20.5607C12.7206 20.842 13.1022 21 13.5 21H22.5C22.8978 21 23.2794 20.842 23.5607 20.5607C23.842 20.2794 24 19.8978 24 19.5C24 19.1022 23.842 18.7206 23.5607 18.4393C23.2794 18.158 22.8978 18 22.5 18ZM43.5 30.2756V42C43.5024 42.2644 43.4348 42.5248 43.3041 42.7547C43.1734 42.9846 42.9843 43.1759 42.7559 43.3092C42.5274 43.4424 42.2678 43.5129 42.0034 43.5135C41.7389 43.5141 41.479 43.4447 41.25 43.3125L36.75 40.7362L32.25 43.3125C32.021 43.4447 31.7611 43.5141 31.4966 43.5135C31.2322 43.5129 30.9726 43.4424 30.7441 43.3092C30.5157 43.1759 30.3266 42.9846 30.1959 42.7547C30.0652 42.5248 29.9976 42.2644 30 42V37.5H7.5C6.70435 37.5 5.94129 37.1839 5.37868 36.6213C4.81607 36.0587 4.5 35.2956 4.5 34.5V10.5C4.5 9.70435 4.81607 8.94129 5.37868 8.37868C5.94129 7.81607 6.70435 7.5 7.5 7.5H40.5C41.2957 7.5 42.0587 7.81607 42.6213 8.37868C43.1839 8.94129 43.5 9.70435 43.5 10.5V16.2244C44.4482 17.1324 45.2028 18.223 45.7183 19.4304C46.2338 20.6378 46.4996 21.9371 46.4996 23.25C46.4996 24.5629 46.2338 25.8622 45.7183 27.0696C45.2028 28.277 44.4482 29.3676 43.5 30.2756ZM30 34.5V30.2756C28.3654 28.6992 27.3323 26.6016 27.0791 24.3448C26.8259 22.0881 27.3683 19.8137 28.6129 17.9142C29.8575 16.0147 31.7261 14.6092 33.8962 13.9402C36.0664 13.2713 38.402 13.3808 40.5 14.25V10.5H7.5V34.5H30ZM40.5 32.25C39.3121 32.7463 38.0374 33.0019 36.75 33.0019C35.4626 33.0019 34.1879 32.7463 33 32.25V39.4163L36 37.6987C36.2267 37.5692 36.4833 37.501 36.7444 37.501C37.0055 37.501 37.2621 37.5692 37.4888 37.6987L40.4888 39.4163L40.5 32.25ZM43.5 23.25C43.5 21.915 43.1041 20.6099 42.3624 19.4999C41.6207 18.3899 40.5665 17.5247 39.3331 17.0138C38.0997 16.5029 36.7425 16.3692 35.4331 16.6297C34.1238 16.8901 32.921 17.533 31.977 18.477C31.033 19.421 30.3901 20.6238 30.1297 21.9331C29.8692 23.2425 30.0029 24.5997 30.5138 25.8331C31.0247 27.0665 31.8899 28.1207 32.9999 28.8624C34.1099 29.6041 35.415 30 36.75 30C37.6364 30 38.5142 29.8254 39.3331 29.4862C40.1521 29.147 40.8962 28.6498 41.523 28.023C42.1498 27.3962 42.647 26.6521 42.9862 25.8331C43.3254 25.0142 43.5 24.1364 43.5 23.25Z" fill="black"/>
</svg>
