<svg width="49" height="48" viewBox="0 0 49 48" fill="none" xmlns="http://www.w3.org/2000/svg">
<path d="M40.728 12.4388L33.228 4.93875C33.0886 4.7995 32.9231 4.68908 32.741 4.6138C32.5589 4.53851 32.3638 4.49985 32.1667 4.5H17.1667C16.3711 4.5 15.608 4.81607 15.0454 5.37868C14.4828 5.94129 14.1667 6.70435 14.1667 7.5V10.5H11.1667C10.3711 10.5 9.60804 10.8161 9.04543 11.3787C8.48282 11.9413 8.16675 12.7044 8.16675 13.5V40.5C8.16675 41.2957 8.48282 42.0587 9.04543 42.6213C9.60804 43.1839 10.3711 43.5 11.1667 43.5H32.1667C32.9624 43.5 33.7255 43.1839 34.2881 42.6213C34.8507 42.0587 35.1667 41.2957 35.1667 40.5V37.5H38.1667C38.9624 37.5 39.7255 37.1839 40.2881 36.6213C40.8507 36.0587 41.1667 35.2956 41.1667 34.5V13.5C41.1669 13.303 41.1282 13.1078 41.053 12.9257C40.9777 12.7436 40.8672 12.5782 40.728 12.4388ZM32.1667 40.5H11.1667V13.5H25.5461L32.1667 20.1206V35.97C32.1667 35.9812 32.1667 35.9906 32.1667 36C32.1667 36.0094 32.1667 36.0188 32.1667 36.03V40.5ZM38.1667 34.5H35.1667V19.5C35.1669 19.303 35.1282 19.1078 35.053 18.9257C34.9777 18.7436 34.8673 18.5782 34.728 18.4387L27.228 10.9388C27.0886 10.7995 26.9231 10.6891 26.741 10.6138C26.5589 10.5385 26.3638 10.4998 26.1667 10.5H17.1667V7.5H31.5461L38.1667 14.1206V34.5ZM27.6667 28.5C27.6667 28.8978 27.5087 29.2794 27.2274 29.5607C26.9461 29.842 26.5646 30 26.1667 30H17.1667C16.7689 30 16.3874 29.842 16.1061 29.5607C15.8248 29.2794 15.6667 28.8978 15.6667 28.5C15.6667 28.1022 15.8248 27.7206 16.1061 27.4393C16.3874 27.158 16.7689 27 17.1667 27H26.1667C26.5646 27 26.9461 27.158 27.2274 27.4393C27.5087 27.7206 27.6667 28.1022 27.6667 28.5ZM27.6667 34.5C27.6667 34.8978 27.5087 35.2794 27.2274 35.5607C26.9461 35.842 26.5646 36 26.1667 36H17.1667C16.7689 36 16.3874 35.842 16.1061 35.5607C15.8248 35.2794 15.6667 34.8978 15.6667 34.5C15.6667 34.1022 15.8248 33.7206 16.1061 33.4393C16.3874 33.158 16.7689 33 17.1667 33H26.1667C26.5646 33 26.9461 33.158 27.2274 33.4393C27.5087 33.7206 27.6667 34.1022 27.6667 34.5Z" fill="black"/>
</svg>
