<svg width="48" height="48" viewBox="0 0 48 48" fill="none" xmlns="http://www.w3.org/2000/svg">
<path d="M39 10.4999C36.9567 10.4999 34.9314 10.8814 33.0281 11.6249C30.3431 6.05617 24.9188 3.28867 24.6712 3.16492C24.4629 3.06064 24.233 3.00635 24 3.00635C23.767 3.00635 23.5371 3.06064 23.3287 3.16492C23.0794 3.28867 17.6569 6.05617 14.9719 11.6249C13.0686 10.8814 11.0433 10.4999 9 10.4999C8.60218 10.4999 8.22064 10.658 7.93934 10.9393C7.65804 11.2206 7.5 11.6021 7.5 11.9999V26.9999C7.5 31.376 9.23839 35.5728 12.3327 38.6672C15.4271 41.7615 19.6239 43.4999 24 43.4999C28.3761 43.4999 32.5729 41.7615 35.6673 38.6672C38.7616 35.5728 40.5 31.376 40.5 26.9999V11.9999C40.5 11.6021 40.342 11.2206 40.0607 10.9393C39.7794 10.658 39.3978 10.4999 39 10.4999ZM22.5 40.4174C19.2013 40.0445 16.1551 38.4708 13.9421 35.9963C11.729 33.5219 10.5038 30.3196 10.5 26.9999V24.0824C13.7987 24.4554 16.8449 26.029 19.0579 28.5035C21.271 30.978 22.4962 34.1802 22.5 37.4999V40.4174ZM22.5 28.0237C21.1244 26.063 19.3384 24.4253 17.2662 23.2244C15.1939 22.0235 12.8851 21.2881 10.5 21.0693V13.5824C13.7987 13.9554 16.8449 15.529 19.0579 18.0035C21.271 20.478 22.4962 23.6802 22.5 26.9999V28.0237ZM17.6531 12.958C19.3819 9.35617 22.605 7.08367 24 6.2268C25.395 7.08555 28.6181 9.35805 30.345 12.958C27.572 14.6742 25.3653 17.1684 24 20.1299C22.6346 17.1679 20.4271 14.6735 17.6531 12.958ZM37.5 26.9999C37.4962 30.3196 36.271 33.5219 34.0579 35.9963C31.8449 38.4708 28.7987 40.0445 25.5 40.4174V37.4999C25.5038 34.1802 26.729 30.978 28.9421 28.5035C31.1551 26.029 34.2013 24.4554 37.5 24.0824V26.9999ZM37.5 21.0693C35.1149 21.2881 32.8061 22.0235 30.7338 23.2244C28.6616 24.4253 26.8756 26.063 25.5 28.0237V26.9999C25.5038 23.6802 26.729 20.478 28.9421 18.0035C31.1551 15.529 34.2013 13.9554 37.5 13.5824V21.0693Z" fill="black"/>
</svg>
