<svg width="48" height="48" viewBox="0 0 48 48" fill="none" xmlns="http://www.w3.org/2000/svg">
<path d="M44.8462 18.2365C44.6587 17.66 44.3047 17.1518 43.8289 16.7761C43.3531 16.4004 42.7768 16.174 42.1725 16.1252L31.11 15.2327L26.8387 4.90335C26.6078 4.34051 26.2146 3.85907 25.7093 3.52024C25.204 3.1814 24.6093 3.00049 24.0009 3.00049C23.3925 3.00049 22.7979 3.1814 22.2926 3.52024C21.7873 3.85907 21.3941 4.34051 21.1631 4.90335L16.8956 15.2309L5.8275 16.1252C5.2222 16.1764 4.64548 16.4051 4.16957 16.7826C3.69367 17.1601 3.33976 17.6697 3.15217 18.2475C2.96459 18.8252 2.95168 19.4455 3.11506 20.0306C3.27844 20.6156 3.61084 21.1395 4.07062 21.5365L12.5081 28.8171L9.9375 39.7034C9.79373 40.2948 9.82893 40.9156 10.0386 41.487C10.2483 42.0583 10.6231 42.5545 11.1153 42.9126C11.6075 43.2706 12.195 43.4743 12.8032 43.4978C13.4114 43.5213 14.0129 43.3636 14.5312 43.0446L24 37.2171L33.4744 43.0446C33.9929 43.3598 34.5932 43.5145 35.1995 43.4892C35.8058 43.4639 36.3911 43.2598 36.8816 42.9026C37.3722 42.5453 37.746 42.051 37.9562 41.4817C38.1663 40.9124 38.2033 40.2936 38.0625 39.7034L35.4825 28.8152L43.92 21.5346C44.3835 21.1383 44.7189 20.6133 44.8838 20.0262C45.0487 19.439 45.0356 18.8162 44.8462 18.2365ZM41.97 19.2621L32.8387 27.1371C32.6305 27.3166 32.4756 27.5499 32.391 27.8114C32.3063 28.073 32.2952 28.3528 32.3587 28.6202L35.1487 40.3952C35.156 40.4115 35.1567 40.4298 35.1508 40.4466C35.1448 40.4633 35.1327 40.4772 35.1169 40.4852C35.0831 40.5115 35.0737 40.5059 35.0456 40.4852L24.7856 34.1759C24.5493 34.0306 24.2774 33.9537 24 33.9537C23.7226 33.9537 23.4507 34.0306 23.2144 34.1759L12.9544 40.489C12.9262 40.5059 12.9187 40.5115 12.8831 40.489C12.8673 40.4809 12.8552 40.4671 12.8492 40.4503C12.8433 40.4336 12.844 40.4152 12.8512 40.399L15.6412 28.624C15.7048 28.3565 15.6937 28.0767 15.609 27.8152C15.5244 27.5536 15.3695 27.3203 15.1612 27.1409L6.03 19.2659C6.0075 19.2471 5.98687 19.2302 6.00562 19.1721C6.02437 19.114 6.03937 19.1215 6.0675 19.1177L18.0525 18.1502C18.3274 18.1267 18.5905 18.0277 18.8128 17.8643C19.0351 17.7009 19.208 17.4793 19.3125 17.224L23.9287 6.0471C23.9437 6.01523 23.9494 6.00023 23.9944 6.00023C24.0394 6.00023 24.045 6.01523 24.06 6.0471L28.6875 17.224C28.793 17.4794 28.967 17.7007 29.1904 17.8635C29.4137 18.0263 29.6777 18.1242 29.9531 18.1465L41.9381 19.114C41.9662 19.114 41.9831 19.114 42 19.1684C42.0169 19.2227 42 19.2434 41.97 19.2621Z" fill="black"/>
</svg>
