<svg width="48" height="48" viewBox="0 0 48 48" fill="none" xmlns="http://www.w3.org/2000/svg">
<path d="M41.6006 15.5923C43.6821 19.9456 44.0772 24.9157 42.7098 29.5433C41.3423 34.1709 38.3092 38.1279 34.1957 40.6507C30.0823 43.1735 25.1802 44.0831 20.4356 43.2041C15.6909 42.3251 11.44 39.7197 8.50333 35.8908C5.56665 32.0619 4.15235 27.2809 4.5334 22.4706C4.91445 17.6602 7.06383 13.1616 10.5667 9.84277C14.0696 6.52398 18.6777 4.62037 23.5015 4.49931C28.3254 4.37826 33.0232 6.04835 36.6881 9.18727L40.9387 4.93477C41.2202 4.65331 41.6019 4.49519 42 4.49519C42.398 4.49519 42.7798 4.65331 43.0612 4.93477C43.3427 5.21623 43.5008 5.59797 43.5008 5.99602C43.5008 6.39407 43.3427 6.77581 43.0612 7.05727L25.0612 25.0573C24.7798 25.3387 24.398 25.4969 24 25.4969C23.6019 25.4969 23.2202 25.3387 22.9387 25.0573C22.6573 24.7758 22.4991 24.3941 22.4991 23.996C22.4991 23.598 22.6573 23.2162 22.9387 22.9348L28.1362 17.7373C26.7276 16.8057 25.0459 16.3768 23.3632 16.5199C21.6805 16.6631 20.0953 17.37 18.8644 18.5261C17.6334 19.6823 16.8287 21.22 16.5804 22.8905C16.3322 24.5609 16.655 26.2662 17.4966 27.7304C18.3381 29.1945 19.6492 30.3318 21.2176 30.9581C22.7859 31.5844 24.5197 31.663 26.1384 31.1813C27.757 30.6996 29.1656 29.6857 30.1363 28.3037C31.107 26.9218 31.5828 25.2527 31.4868 23.5666C31.4758 23.3697 31.5036 23.1724 31.5687 22.9862C31.6339 22.8 31.7351 22.6284 31.8665 22.4813C31.998 22.3342 32.1571 22.2144 32.3349 22.1287C32.5126 22.0431 32.7055 21.9934 32.9025 21.9823C33.3003 21.9599 33.6907 22.0965 33.9879 22.3619C34.135 22.4934 34.2548 22.6525 34.3404 22.8303C34.426 23.008 34.4758 23.2009 34.4868 23.3979C34.6236 25.7844 33.942 28.146 32.5546 30.0926C31.1673 32.0392 29.1573 33.4542 26.8568 34.1036C24.5564 34.7531 22.1032 34.5981 19.9027 33.6645C17.7022 32.7308 15.8862 31.0742 14.7548 28.9686C13.6233 26.8629 13.2442 24.4342 13.6801 22.0839C14.116 19.7336 15.3407 17.6024 17.152 16.0425C18.9632 14.4826 21.2525 13.5874 23.6414 13.5049C26.0304 13.4223 28.376 14.1574 30.2906 15.5885L34.5562 11.3229C31.4302 8.72751 27.4555 7.37857 23.3956 7.53516C19.3356 7.69175 15.4766 9.34282 12.5598 12.1713C9.64302 14.9997 7.87405 18.8061 7.59268 22.8593C7.31131 26.9126 8.53738 30.9268 11.0354 34.1312C13.5334 37.3355 17.1272 39.5039 21.1266 40.22C25.126 40.9361 29.249 40.1492 32.7036 38.0107C36.1582 35.8721 38.7009 32.5326 39.8433 28.6335C40.9858 24.7345 40.6474 20.5508 38.8931 16.886C38.7215 16.527 38.6996 16.1145 38.8322 15.7393C38.9648 15.3641 39.2409 15.057 39.6 14.8854C39.959 14.7138 40.3715 14.6919 40.7467 14.8245C41.1219 14.9571 41.429 15.2332 41.6006 15.5923Z" fill="black"/>
</svg>
