<svg width="48" height="48" viewBox="0 0 48 48" fill="none" xmlns="http://www.w3.org/2000/svg">
<path d="M10.5 18V30C10.5 30.3978 10.342 30.7794 10.0607 31.0607C9.77936 31.342 9.39782 31.5 9 31.5C8.60218 31.5 8.22064 31.342 7.93934 31.0607C7.65804 30.7794 7.5 30.3978 7.5 30V18C7.5 17.6022 7.65804 17.2206 7.93934 16.9393C8.22064 16.658 8.60218 16.5 9 16.5C9.39782 16.5 9.77936 16.658 10.0607 16.9393C10.342 17.2206 10.5 17.6022 10.5 18ZM16.5 4.5C16.1022 4.5 15.7206 4.65804 15.4393 4.93934C15.158 5.22064 15 5.60218 15 6V42C15 42.3978 15.158 42.7794 15.4393 43.0607C15.7206 43.342 16.1022 43.5 16.5 43.5C16.8978 43.5 17.2794 43.342 17.5607 43.0607C17.842 42.7794 18 42.3978 18 42V6C18 5.60218 17.842 5.22064 17.5607 4.93934C17.2794 4.65804 16.8978 4.5 16.5 4.5ZM24 10.5C23.6022 10.5 23.2206 10.658 22.9393 10.9393C22.658 11.2206 22.5 11.6022 22.5 12V36C22.5 36.3978 22.658 36.7794 22.9393 37.0607C23.2206 37.342 23.6022 37.5 24 37.5C24.3978 37.5 24.7794 37.342 25.0607 37.0607C25.342 36.7794 25.5 36.3978 25.5 36V12C25.5 11.6022 25.342 11.2206 25.0607 10.9393C24.7794 10.658 24.3978 10.5 24 10.5ZM31.5 16.5C31.1022 16.5 30.7206 16.658 30.4393 16.9393C30.158 17.2206 30 17.6022 30 18V30C30 30.3978 30.158 30.7794 30.4393 31.0607C30.7206 31.342 31.1022 31.5 31.5 31.5C31.8978 31.5 32.2794 31.342 32.5607 31.0607C32.842 30.7794 33 30.3978 33 30V18C33 17.6022 32.842 17.2206 32.5607 16.9393C32.2794 16.658 31.8978 16.5 31.5 16.5ZM39 13.5C38.6022 13.5 38.2206 13.658 37.9393 13.9393C37.658 14.2206 37.5 14.6022 37.5 15V33C37.5 33.3978 37.658 33.7794 37.9393 34.0607C38.2206 34.342 38.6022 34.5 39 34.5C39.3978 34.5 39.7794 34.342 40.0607 34.0607C40.342 33.7794 40.5 33.3978 40.5 33V15C40.5 14.6022 40.342 14.2206 40.0607 13.9393C39.7794 13.658 39.3978 13.5 39 13.5Z" fill="black"/>
</svg>
