<svg width="120" height="41" viewBox="0 0 120 41" fill="none" xmlns="http://www.w3.org/2000/svg">
<path d="M13.8092 0.246154H17.6985C17.879 0.246154 18.0349 0.311795 18.1662 0.443077C18.2974 0.574359 18.3631 0.730257 18.3631 0.910769V16.8123C18.3631 16.9928 18.2974 17.1487 18.1662 17.28C18.0349 17.4113 17.879 17.4769 17.6985 17.4769H13.2431C13.0626 17.4769 12.9067 17.4113 12.7754 17.28C12.6441 17.1487 12.5785 16.9928 12.5785 16.8123V10.0677L10.9538 12.7262C10.6913 13.1364 10.3877 13.3415 10.0431 13.3415H8.32C7.97539 13.3415 7.6718 13.1364 7.40923 12.7262L5.78462 10.0677V16.8123C5.78462 16.9928 5.71897 17.1487 5.58769 17.28C5.45641 17.4113 5.30051 17.4769 5.12 17.4769H0.664615C0.484103 17.4769 0.328205 17.4113 0.196923 17.28C0.065641 17.1487 0 16.9928 0 16.8123V0.910769C0 0.730257 0.065641 0.574359 0.196923 0.443077C0.328205 0.311795 0.484103 0.246154 0.664615 0.246154H4.55385C5.01333 0.246154 5.36615 0.467692 5.61231 0.910769L9.18154 6.81846L12.7508 0.910769C12.9969 0.467692 13.3497 0.246154 13.8092 0.246154Z" fill="black"/>
<path d="M22.5225 12.2092H24.984C25.8046 12.2092 26.2558 12.0944 26.3379 11.8646L20.6025 1.00923C20.5861 0.96 20.5779 0.902564 20.5779 0.836923C20.6435 0.443077 20.8487 0.246154 21.1933 0.246154H26.3379C26.6825 0.246154 26.9451 0.443077 27.1256 0.836923L29.4148 5.68615L31.2363 0.836923C31.4004 0.443077 31.6794 0.246154 32.0733 0.246154H37.1687C37.3163 0.246154 37.4476 0.30359 37.5625 0.418462C37.6774 0.516923 37.7348 0.631795 37.7348 0.763077C37.7348 0.89436 37.7266 0.976411 37.7102 1.00923L32.8117 12.4554C31.9584 14.4574 31.0558 15.7949 30.104 16.4677C29.1687 17.1405 27.6671 17.4769 25.5994 17.4769H22.5225C22.342 17.4769 22.1861 17.4113 22.0548 17.28C21.9235 17.1487 21.8579 16.9928 21.8579 16.8123V12.8738C21.8579 12.6933 21.9235 12.5374 22.0548 12.4062C22.1861 12.2749 22.342 12.2092 22.5225 12.2092Z" fill="black"/>
<path d="M48.3819 5.90769C48.3819 5.16923 47.8568 4.8 46.8065 4.8C46.1994 4.8 45.8219 4.85744 45.6742 4.97231C45.5429 5.07077 45.3788 5.21846 45.1819 5.41539C45.0014 5.5959 44.7635 5.68615 44.4681 5.68615H39.5204C39.3727 5.68615 39.2414 5.63692 39.1265 5.53846C39.0281 5.42359 38.9788 5.22667 38.9788 4.94769C38.9788 4.66872 39.0609 4.30769 39.225 3.86462C39.3891 3.42154 39.6681 2.97026 40.0619 2.51077C40.4558 2.03487 40.9399 1.61641 41.5142 1.25538C42.0886 0.894359 42.8353 0.598974 43.7542 0.36923C44.6896 0.123077 45.7235 0 46.8558 0C49.1532 0 51.0486 0.525128 52.5419 1.57538C54.0353 2.60923 54.7819 3.91385 54.7819 5.48923C54.7819 7.04821 54.0271 8.20513 52.5173 8.96C54.1091 9.63282 54.905 10.7487 54.905 12.3077C54.905 13.8503 54.1419 15.1385 52.6158 16.1723C51.0896 17.2062 49.1696 17.7231 46.8558 17.7231C45.4609 17.7231 44.2137 17.5508 43.1142 17.2062C42.0312 16.8615 41.1942 16.4267 40.6035 15.9015C39.4383 14.8349 38.8558 13.7436 38.8558 12.6277C38.8558 12.48 38.905 12.3569 39.0035 12.2585C39.1183 12.1436 39.2496 12.0862 39.3973 12.0862H44.345C44.6404 12.0862 44.9358 12.2338 45.2312 12.5292C45.5265 12.8246 46.0517 12.9723 46.8065 12.9723C47.9388 12.9723 48.505 12.6113 48.505 11.8892C48.505 11.3477 47.9306 11.0769 46.7819 11.0769H44.2958C44.1153 11.0769 43.9594 11.0031 43.8281 10.8554C43.6968 10.7077 43.6312 10.5436 43.6312 10.3631V7.40923C43.6312 7.22872 43.6968 7.06462 43.8281 6.91692C43.9594 6.76923 44.1153 6.69539 44.2958 6.69539H46.7819C47.3727 6.69539 47.7829 6.63795 48.0127 6.52308C48.2588 6.40821 48.3819 6.20308 48.3819 5.90769Z" fill="black"/>
<path d="M65.7404 17.4769H58.405C58.2245 17.4769 58.0686 17.4113 57.9373 17.28C57.806 17.1487 57.7404 16.9928 57.7404 16.8123V0.910769C57.7404 0.730257 57.806 0.574359 57.9373 0.443077C58.0686 0.311795 58.2245 0.246154 58.405 0.246154H63.4758C63.6563 0.246154 63.8122 0.311795 63.9435 0.443077C64.0747 0.574359 64.1404 0.730257 64.1404 0.910769V5.61231H65.7404C68.1199 5.61231 69.966 6.08821 71.2788 7.04C72.6081 7.9918 73.2727 9.46051 73.2727 11.4462C73.2727 13.4318 72.6081 14.9333 71.2788 15.9508C69.9496 16.9682 68.1035 17.4769 65.7404 17.4769ZM64.0173 10.1662V12.8985H65.7404C66.1342 12.8985 66.4214 12.759 66.6019 12.48C66.7824 12.201 66.8727 11.8564 66.8727 11.4462C66.8727 11.0359 66.7578 10.7241 66.5281 10.5108C66.2983 10.281 66.0358 10.1662 65.7404 10.1662H64.0173ZM79.8696 17.4769H74.8481C74.6676 17.4769 74.5117 17.4113 74.3804 17.28C74.2491 17.1487 74.1835 16.9928 74.1835 16.8123V0.910769C74.1835 0.730257 74.2491 0.574359 74.3804 0.443077C74.5117 0.311795 74.6676 0.246154 74.8481 0.246154H79.8696C80.0501 0.246154 80.206 0.311795 80.3373 0.443077C80.4686 0.574359 80.5342 0.730257 80.5342 0.910769V16.8123C80.5342 16.9928 80.4686 17.1487 80.3373 17.28C80.206 17.4113 80.0501 17.4769 79.8696 17.4769Z" fill="black"/>
<path d="M99.849 16.6646C99.8983 16.7467 99.9229 16.8533 99.9229 16.9846C99.9229 17.0995 99.8655 17.2144 99.7506 17.3292C99.6521 17.4277 99.529 17.4769 99.3814 17.4769H93.769C93.2931 17.4769 92.9567 17.2882 92.7598 16.9108L89.7567 11.5446V16.8123C89.7567 16.9928 89.6911 17.1487 89.5598 17.28C89.4285 17.4113 89.2726 17.4769 89.0921 17.4769H84.3906C84.2101 17.4769 84.0542 17.4113 83.9229 17.28C83.7916 17.1487 83.726 16.9928 83.726 16.8123V0.910769C83.726 0.730257 83.7916 0.574359 83.9229 0.443077C84.0542 0.311795 84.2101 0.246154 84.3906 0.246154H89.0921C89.2726 0.246154 89.4285 0.311795 89.5598 0.443077C89.6911 0.574359 89.7567 0.730257 89.7567 0.910769V5.78462L92.5383 0.787692C92.7188 0.426667 93.047 0.246154 93.5229 0.246154H98.9629C99.1106 0.246154 99.2337 0.30359 99.3321 0.418462C99.447 0.516923 99.5044 0.631795 99.5044 0.763077C99.5044 0.877949 99.4798 0.97641 99.4306 1.05846L94.9998 8.49231L99.849 16.6646Z" fill="black"/>
<path d="M107.17 0.246154H112.511C113.102 0.246154 113.471 0.516923 113.619 1.05846L119.108 16.7631C119.124 16.8123 119.133 16.8944 119.133 17.0092C119.133 17.1077 119.075 17.2144 118.96 17.3292C118.862 17.4277 118.739 17.4769 118.591 17.4769H114.037C113.545 17.4769 113.225 17.2718 113.077 16.8615L112.487 15.2369H107.194L106.603 16.8615C106.456 17.2718 106.136 17.4769 105.643 17.4769H101.09C100.942 17.4769 100.811 17.4277 100.696 17.3292C100.597 17.2144 100.548 17.1077 100.548 17.0092C100.548 16.8944 100.556 16.8123 100.573 16.7631L106.062 1.05846C106.21 0.516923 106.579 0.246154 107.17 0.246154ZM108.45 10.4369H111.231L109.828 5.85846L108.45 10.4369Z" fill="black"/>
<path d="M54.084 28.2154C54.084 27.4769 53.5589 27.1077 52.5086 27.1077C51.9015 27.1077 51.524 27.1651 51.3763 27.28C51.245 27.3784 51.0809 27.5261 50.884 27.7231C50.7035 27.9036 50.4656 27.9938 50.1702 27.9938H45.2225C45.0748 27.9938 44.9435 27.9446 44.8286 27.8461C44.7302 27.7313 44.6809 27.5343 44.6809 27.2554C44.6809 26.9764 44.763 26.6154 44.9271 26.1723C45.0912 25.7292 45.3702 25.2779 45.764 24.8184C46.1579 24.3426 46.642 23.9241 47.2163 23.5631C47.7907 23.202 48.5373 22.9067 49.4563 22.6769C50.3917 22.4308 51.4256 22.3077 52.5579 22.3077C54.8553 22.3077 56.7507 22.8328 58.244 23.8831C59.7373 24.9169 60.484 26.2215 60.484 27.7969C60.484 29.3559 59.7291 30.5128 58.2194 31.2677C59.8112 31.9405 60.6071 33.0564 60.6071 34.6154C60.6071 36.1579 59.844 37.4461 58.3179 38.48C56.7917 39.5138 54.8717 40.0308 52.5579 40.0308C51.163 40.0308 49.9158 39.8584 48.8163 39.5138C47.7332 39.1692 46.8963 38.7343 46.3056 38.2092C45.1404 37.1426 44.5579 36.0513 44.5579 34.9354C44.5579 34.7877 44.6071 34.6646 44.7056 34.5661C44.8204 34.4513 44.9517 34.3938 45.0994 34.3938H50.0471C50.3425 34.3938 50.6379 34.5415 50.9332 34.8369C51.2286 35.1323 51.7538 35.28 52.5086 35.28C53.6409 35.28 54.2071 34.919 54.2071 34.1969C54.2071 33.6554 53.6327 33.3846 52.484 33.3846H49.9979C49.8173 33.3846 49.6615 33.3108 49.5302 33.1631C49.3989 33.0154 49.3332 32.8513 49.3332 32.6708V29.7169C49.3332 29.5364 49.3989 29.3723 49.5302 29.2246C49.6615 29.0769 49.8173 29.0031 49.9979 29.0031H52.484C53.0748 29.0031 53.485 28.9456 53.7148 28.8308C53.9609 28.7159 54.084 28.5108 54.084 28.2154Z" fill="black"/>
<path d="M75.4794 28.7077C75.6599 28.4943 75.7502 28.24 75.7502 27.9446C75.7502 27.6492 75.6599 27.3867 75.4794 27.1569C75.3153 26.9108 75.0691 26.7877 74.7409 26.7877H69.5963V29.0277H74.7409C75.0691 29.0277 75.3153 28.921 75.4794 28.7077ZM69.5963 33.1384V35.5508H74.9625C75.3399 35.5508 75.6189 35.4277 75.7994 35.1815C75.9963 34.919 76.0948 34.6318 76.0948 34.32V34.2954C76.0948 33.9836 75.9881 33.7128 75.7748 33.4831C75.5779 33.2533 75.3071 33.1384 74.9625 33.1384H69.5963ZM75.6025 39.7846H64.1071C63.9266 39.7846 63.7707 39.719 63.6394 39.5877C63.5081 39.4564 63.4425 39.3005 63.4425 39.12V23.2184C63.4425 23.0379 63.5081 22.882 63.6394 22.7508C63.7707 22.6195 63.9266 22.5538 64.1071 22.5538H75.3563C77.6866 22.5538 79.4015 22.9805 80.5009 23.8338C81.6168 24.6708 82.1748 25.9426 82.1748 27.6492V27.7231C82.1748 28.4287 81.9697 29.0605 81.5594 29.6184C81.1491 30.16 80.6979 30.5538 80.2056 30.8C80.862 31.0626 81.4117 31.5302 81.8548 32.2031C82.3143 32.8595 82.544 33.5815 82.544 34.3692C82.544 37.9795 80.2302 39.7846 75.6025 39.7846Z" fill="black"/>
<path d="M86.0852 34.5169H88.5467C89.3672 34.5169 89.8185 34.402 89.9006 34.1723L84.1652 23.3169C84.1488 23.2677 84.1406 23.2102 84.1406 23.1446C84.2062 22.7508 84.4113 22.5538 84.7559 22.5538H89.9006C90.2452 22.5538 90.5077 22.7508 90.6882 23.1446L92.9775 27.9938L94.799 23.1446C94.9631 22.7508 95.2421 22.5538 95.6359 22.5538H100.731C100.879 22.5538 101.01 22.6113 101.125 22.7261C101.24 22.8246 101.297 22.9395 101.297 23.0708C101.297 23.202 101.289 23.2841 101.273 23.3169L96.3744 34.7631C95.5211 36.7651 94.6185 38.1026 93.6667 38.7754C92.7313 39.4482 91.2298 39.7846 89.1621 39.7846H86.0852C85.9047 39.7846 85.7488 39.719 85.6175 39.5877C85.4862 39.4564 85.4206 39.3005 85.4206 39.12V35.1815C85.4206 35.001 85.4862 34.8451 85.6175 34.7138C85.7488 34.5826 85.9047 34.5169 86.0852 34.5169Z" fill="black"/>
<path d="M119.157 38.9723C119.206 39.0543 119.231 39.161 119.231 39.2923C119.231 39.4072 119.173 39.522 119.058 39.6369C118.96 39.7354 118.837 39.7846 118.689 39.7846H113.077C112.601 39.7846 112.265 39.5959 112.068 39.2184L109.065 33.8523V39.12C109.065 39.3005 108.999 39.4564 108.868 39.5877C108.736 39.719 108.58 39.7846 108.4 39.7846H103.698C103.518 39.7846 103.362 39.719 103.231 39.5877C103.099 39.4564 103.034 39.3005 103.034 39.12V23.2184C103.034 23.0379 103.099 22.882 103.231 22.7508C103.362 22.6195 103.518 22.5538 103.698 22.5538H108.4C108.58 22.5538 108.736 22.6195 108.868 22.7508C108.999 22.882 109.065 23.0379 109.065 23.2184V28.0923L111.846 23.0954C112.027 22.7343 112.355 22.5538 112.831 22.5538H118.271C118.418 22.5538 118.542 22.6113 118.64 22.7261C118.755 22.8246 118.812 22.9395 118.812 23.0708C118.812 23.1856 118.788 23.2841 118.738 23.3661L114.308 30.8L119.157 38.9723Z" fill="black"/>
<path d="M26.4751 26.3615C26.4751 25.6181 27.0778 25.0154 27.8213 25.0154C28.5647 25.0154 29.1674 25.6181 29.1674 26.3615V35.9769C29.1674 36.7204 28.5647 37.3231 27.8213 37.3231C27.0778 37.3231 26.4751 36.7204 26.4751 35.9769V26.3615Z" fill="black"/>
<path d="M37.629 27.9C37.629 27.1566 38.2317 26.5539 38.9751 26.5539C39.7186 26.5539 40.3213 27.1566 40.3213 27.9V34.4385C40.3213 35.1819 39.7186 35.7846 38.9751 35.7846C38.2317 35.7846 37.629 35.1819 37.629 34.4385V27.9Z" fill="black"/>
<path d="M30.129 24.0539C30.129 23.3104 30.7317 22.7077 31.4751 22.7077C32.2186 22.7077 32.8213 23.3104 32.8213 24.0539V38.2846C32.8213 39.0281 32.2186 39.6308 31.4751 39.6308C30.7317 39.6308 30.129 39.0281 30.129 38.2846V24.0539Z" fill="black"/>
<path d="M33.7828 26.3615C33.7828 25.6181 34.3855 25.0154 35.129 25.0154C35.8724 25.0154 36.4751 25.6181 36.4751 26.3615V35.9769C36.4751 36.7204 35.8724 37.3231 35.129 37.3231C34.3855 37.3231 33.7828 36.7204 33.7828 35.9769V26.3615Z" fill="black"/>
<path d="M22.8213 27.9C22.8213 27.1566 23.424 26.5539 24.1674 26.5539C24.9109 26.5539 25.5136 27.1566 25.5136 27.9V34.4385C25.5136 35.1819 24.9109 35.7846 24.1674 35.7846C23.424 35.7846 22.8213 35.1819 22.8213 34.4385V27.9Z" fill="black"/>
<path d="M0.664615 22.3077H5.12C5.30051 22.3077 5.45641 22.3733 5.58769 22.5046C5.71897 22.6359 5.78462 22.7918 5.78462 22.9723V29.6923L13.0215 22.8738C13.2349 22.4964 13.5713 22.3077 14.0308 22.3077H17.92C18.1005 22.3077 18.2564 22.3733 18.3877 22.5046C18.519 22.6359 18.5846 22.7918 18.5846 22.9723V38.8738C18.5846 39.0543 18.519 39.2102 18.3877 39.3415C18.2564 39.4728 18.1005 39.5384 17.92 39.5384H13.4646C13.2841 39.5384 13.1282 39.4728 12.9969 39.3415C12.8656 39.2102 12.8 39.0543 12.8 38.8738V32.6954L5.56308 38.9723C5.31692 39.3497 4.98051 39.5384 4.55385 39.5384H0.664615C0.484102 39.5384 0.328205 39.4728 0.196923 39.3415C0.065641 39.2102 0 39.0543 0 38.8738V22.9723C0 22.7918 0.065641 22.6359 0.196923 22.5046C0.328205 22.3733 0.484102 22.3077 0.664615 22.3077Z" fill="black"/>
</svg>
